<?xml version="1.0" encoding="utf-8"?>
<!-- Generator: Adobe Illustrator 21.0.2, SVG Export Plug-In . SVG Version: 6.00 Build 0)  -->
<svg version="1.1" id="レイヤー_1" xmlns="http://www.w3.org/2000/svg" xmlns:xlink="http://www.w3.org/1999/xlink" x="0px"
	 y="0px" viewBox="0 0 500 500" style="enable-background:new 0 0 500 500;" xml:space="preserve">
<style type="text/css">
	.st0{fill:#102331;}
	.st1{fill:#F5F8FA;}
</style>
<rect class="st0" width="500" height="500"/>
<title>Group 4</title>
<desc>Created with Sketch.</desc>
<g id="Page-1">
	<g id="RobustBanner" transform="translate(-49.000000, -22.000000)">
		<g id="Banner" transform="translate(22.000000, -42.000000)">
			<g id="Group-4" transform="translate(27.000000, 64.000000)">
				<g id="Group-3">
					<path id="Shape" class="st1" d="M183.8,315.5l-2.2,1.5c-4.9,3.3-4.8,10.5,0.1,13.7l56.3,37.8c7.5,5.1,17.3,5.1,24.8,0.1
						l55.7-37.1c4.9-3.2,4.9-10.4,0-13.7l-2.4-1.6l-19.3,13l-38.1,25.4c-5.1,3.4-11.8,3.4-16.9-0.1l-38.5-25.8L183.8,315.5
						L183.8,315.5z"/>
					<path id="Shape_1_" class="st1" d="M156.4,254.9l-3.1,2.1c-6.9,4.6-6.8,14.7,0.1,19.4l79.5,53.3c10.6,7.1,24.4,7.2,35,0.2
						l78.7-52.4c6.9-4.6,6.9-14.7,0-19.4l-3.3-2.2l-27.2,18.4L262.2,310c-7.2,4.8-16.7,4.8-23.9-0.1L156.4,254.9L156.4,254.9z"/>
					<path id="Shape_2_" class="st1" d="M366.1,199l-95.4-64.7c-12.8-8.7-29.6-8.8-42.3-0.2l-94.5,63.6c-8.2,5.5-8.2,17.7,0.1,23.3
						l95.5,64.1c12.7,8.6,29.3,8.6,42,0.2l94.6-63C374.4,216.8,374.3,204.6,366.1,199L366.1,199z M329.4,218.4l-64.7,43.1
						c-8.7,5.8-20,5.7-28.7-0.1l-65.3-43.9c-5.7-3.8-5.7-12.1-0.1-15.9l64.6-43.5c8.7-5.9,20.2-5.8,28.9,0.1l65.2,44.2
						C335,206.3,335,214.6,329.4,218.4L329.4,218.4z"/>
				</g>
			</g>
		</g>
	</g>
</g>
</svg>
