<svg id="Layer_1" data-name="Layer 1" xmlns="http://www.w3.org/2000/svg" viewBox="0 0 50 50"><defs><style>.cls-1{fill:#42ce9f;}.cls-2{fill:#fff;}</style></defs><title>Artboard 1 copy 18</title><rect class="cls-1" width="50" height="50" rx="10.2" ry="10.2"/><path class="cls-2" d="M18.76,37h0A2.41,2.41,0,0,1,17,36.29h0c-.71-.72-.72-1.4-.74-2.64,0-.61,0-1.48,0-2.52,0-1.82,0-4.35,0-7.52,0-5.45.06-10.88.06-10.88l4.82,0c0,1.2,0,2.53,0,3.91,5.71.66,10,3.13,11.76,6.9a8.31,8.31,0,0,1-1.28,9C28.24,36.67,23.41,37,18.76,37Zm2.38-15.48c0,4.15,0,8.19,0,10.6,3.61-.2,5.4-.93,6.82-2.63a3.5,3.5,0,0,0,.61-3.88C27.75,23.91,25.41,22.12,21.13,21.52Z"/></svg>