<?xml version="1.0" encoding="utf-8"?>
<!-- Generator: Adobe Illustrator 19.2.0, SVG Export Plug-In . SVG Version: 6.00 Build 0)  -->
<svg version="1.1" id="レイヤー_1" xmlns="http://www.w3.org/2000/svg" xmlns:xlink="http://www.w3.org/1999/xlink" x="0px"
	 y="0px" viewBox="0 0 80 65" style="enable-background:new 0 0 80 65;" xml:space="preserve">
<style type="text/css">
	.st0{fill:none;}
	.st1{fill:#92D0E1;}
	.st2{fill:#B1DEEA;}
	.st3{fill:#64BDD4;}
</style>
<rect class="st0" width="80" height="65"/>
<g>
	<path class="st1" d="M67.4,42.7c0,7.8-6.4,14.2-14.2,14.2c-7.8,0-14.2-6.4-14.2-14.2c0-7.8,6.4-14.2,14.2-14.2
		C61,28.5,67.4,34.8,67.4,42.7z M53.2,36.9c-3.2,0-5.7,2.6-5.7,5.7c0,3.2,2.6,5.7,5.7,5.7c3.2,0,5.7-2.6,5.7-5.7
		C58.9,39.5,56.3,36.9,53.2,36.9z"/>
	<path class="st2" d="M80,18c0,4.9-3.9,8.8-8.8,8.8c-4.9,0-8.8-3.9-8.8-8.8c0-4.9,3.9-8.8,8.8-8.8C76.1,9.2,80,13.1,80,18z
		 M71.2,14.4c-2,0-3.5,1.6-3.5,3.6c0,2,1.6,3.6,3.5,3.6c2,0,3.6-1.6,3.6-3.6C74.7,16,73.1,14.4,71.2,14.4z"/>
	<path class="st3" d="M45.5,30.3c0,12.5-10.1,22.6-22.6,22.6c-12.5,0-22.6-10.1-22.6-22.6c0-12.5,10.1-22.6,22.6-22.6
		C35.4,7.7,45.5,17.8,45.5,30.3z M22.9,21.2c-5,0-9.1,4.1-9.1,9.1c0,5,4.1,9.1,9.1,9.1c5,0,9.1-4.1,9.1-9.1
		C32,25.3,27.9,21.2,22.9,21.2z"/>
</g>
</svg>
